<svg xmlns="http://www.w3.org/2000/svg" viewBox="0 0 500 500"><g id="freepik--Shadow--inject-181"><path d="M464.25,454.44c0,3.38-93.52,6.13-208.87,6.13S46.5,457.82,46.5,454.44,140,448.3,255.38,448.3,464.25,451.05,464.25,454.44Z" style="fill:#f5f5f5"></path></g><g id="freepik--Stars--inject-181"><path d="M107.64,127.3c-.88,0-9.41.67-10.61,10.56h-1.4s.42-9.65-10.61-10.16l.07-1.53c.87,0,9.06-.37,10.26-10.27h1.4s-1,8.92,10.89,10.32Z" style="fill:#407BFF"></path><path d="M421.52,362.92c-.88,0-9.41.67-10.61,10.56h-1.4s.42-9.65-10.6-10.16l.06-1.53c.87,0,9.06-.37,10.26-10.27h1.4s-.95,8.93,10.89,10.32Z" style="fill:#407BFF"></path><path d="M118.34,113.7a4.17,4.17,0,0,0-4,3.93h-.52s.16-3.59-3.94-3.78l0-.57a3.94,3.94,0,0,0,3.82-3.83h.52s-.35,3.33,4,3.85Z" style="fill:#407BFF"></path></g><g id="freepik--Circle--inject-181"><ellipse cx="250" cy="254.14" rx="155.49" ry="164.28" style="fill:#407BFF"></ellipse></g><g id="freepik--kitsune-mask--inject-181"><path d="M143.23,411.29a120.56,120.56,0,0,1,13.13-144.88l8.14,7.4a109.58,109.58,0,0,0-11.94,131.66Z" style="fill:#263238"></path><path d="M142.69,411.48l14.37.14c3.63,3.24,7.31,6.5,11.65,8.68s9.5,3.17,14.1,1.61a33,33,0,0,1-6.65,10.69c-1,1.07-3.29,3.23-3.29,3.23a29.78,29.78,0,0,1-7.56-3,21.57,21.57,0,0,0,4.75,6.37,32.3,32.3,0,0,1-11.44,10.69,3.92,3.92,0,0,1-5.8-.85A40.85,40.85,0,0,1,142.69,411.48Z" style="fill:#263238"></path><path d="M165.31,432.82l-7.8-7.92s3.78,10.73,12.55,14.29A31.68,31.68,0,0,1,165.31,432.82Z" style="opacity:0.30000000000000004"></path><circle cx="145.07" cy="404.97" r="18.06" transform="translate(-267.25 282.32) rotate(-53.72)" style="fill:#407BFF"></circle><rect x="124.09" y="402.33" width="42.63" height="7.2" rx="3.1" transform="translate(447.41 713.69) rotate(155.25)" style="fill:#407BFF"></rect><path d="M146.59,414.82a3.18,3.18,0,1,0,1.56-4.22A3.17,3.17,0,0,0,146.59,414.82Z" style="fill:#263238"></path><path d="M154.49,419.67l-3.29-5.05-2.22,1,1.58,5.9A9.43,9.43,0,0,0,154.49,419.67Z" style="fill:#263238"></path><rect x="124.09" y="402.33" width="42.63" height="7.2" rx="3.1" transform="translate(447.41 713.69) rotate(155.25)" style="opacity:0.2"></rect><path d="M123.07,408.07a.5.5,0,0,1-.49-.45,21.83,21.83,0,0,1,8.93-19.78.5.5,0,0,1,.58.82,20.81,20.81,0,0,0-8.52,18.85.5.5,0,0,1-.44.55Z" style="fill:#407BFF"></path><path d="M362.33,411.29,353,405.47a109.58,109.58,0,0,0-11.94-131.66l8.14-7.4a120.56,120.56,0,0,1,13.13,144.88Z" style="fill:#263238"></path><path d="M362.87,411.48l-14.37.14c-3.63,3.24-7.31,6.5-11.65,8.68s-9.5,3.17-14.1,1.61a32.82,32.82,0,0,0,6.66,10.69c1,1.07,3.28,3.23,3.28,3.23a29.92,29.92,0,0,0,7.57-3,21.78,21.78,0,0,1-4.76,6.37,32.3,32.3,0,0,0,11.44,10.69,3.92,3.92,0,0,0,5.8-.85A40.85,40.85,0,0,0,362.87,411.48Z" style="fill:#263238"></path><path d="M340.26,432.82l7.8-7.92s-3.79,10.73-12.56,14.29A31.58,31.58,0,0,0,340.26,432.82Z" style="opacity:0.30000000000000004"></path><circle cx="360.5" cy="404.97" r="18.06" transform="translate(-51.34 52.33) rotate(-7.75)" style="fill:#407BFF"></circle><rect x="338.84" y="402.33" width="42.63" height="7.2" rx="3.1" transform="translate(203.04 -113.5) rotate(24.75)" style="fill:#407BFF"></rect><path d="M359,414.82a3.19,3.19,0,1,1-1.56-4.22A3.19,3.19,0,0,1,359,414.82Z" style="fill:#263238"></path><path d="M351.08,419.67l3.28-5.05,2.22,1-1.58,5.9A9.43,9.43,0,0,1,351.08,419.67Z" style="fill:#263238"></path><rect x="338.84" y="402.33" width="42.63" height="7.2" rx="3.1" transform="translate(203.04 -113.5) rotate(24.75)" style="opacity:0.2"></rect><path d="M382.49,408.07h-.06a.5.5,0,0,1-.44-.55,20.81,20.81,0,0,0-8.51-18.85.5.5,0,1,1,.57-.82A21.83,21.83,0,0,1,383,407.62.49.49,0,0,1,382.49,408.07Z" style="fill:#407BFF"></path><path d="M371.87,162.28c0-35.59-19.29-67.81-38.1-68.58-15.79-.65-55.37,81.56-58.21,79.47-15.87-5.09-33.25-4.13-50.85-.2,0,0-46.86-80.13-63-80.26-18.83-.15-33.57,31.06-33.56,69.57,0,28.49,12.39,57.85,12.39,57.85s-3.38,101.27,5,118.53c18.36,38,49.13,18.39,56.8,35.37,7.45,16.5,6.41,37.8,50.61,38.68,1.4,0,2.75,0,4.06,0,44.2-.88,40-29.5,47.43-46,7.67-17,37.05,4.2,55.41-33.8,8.34-17.25,1.85-109.35,1.85-109.35S371.85,190.77,371.87,162.28Z" style="fill:#407BFF"></path><path d="M371.87,162.28c0-35.59-19.29-67.81-38.1-68.58-15.79-.65-55.37,81.56-58.21,79.47-15.87-5.09-33.25-4.13-50.85-.2,0,0-46.86-80.13-63-80.26-18.83-.15-33.57,31.06-33.56,69.57,0,28.49,12.39,57.85,12.39,57.85s-3.38,101.27,5,118.53c18.36,38,49.13,18.39,56.8,35.37,7.45,16.5,6.41,37.8,50.61,38.68,1.4,0,2.75,0,4.06,0,44.2-.88,40-29.5,47.43-46,7.67-17,37.05,4.2,55.41-33.8,8.34-17.25,1.85-109.35,1.85-109.35S371.85,190.77,371.87,162.28Z" style="fill:#fff;opacity:0.8"></path><path d="M273,202.6s-8.83-5.56-11.12-12.1a39.11,39.11,0,0,1-1.69-11.12,5.21,5.21,0,0,0-5.22-5h0a5.2,5.2,0,0,0-5.21,5A39.13,39.13,0,0,1,248,190.5c-2.29,6.54-11.11,12.1-11.11,12.1-23.54,14.71-23.07,40.81-19.29,52.3,6,18.17,26.81,23.86,26.81,23.86s3,45.65,2.26,68.72c-1,31-7.05,50.55-10.5,58.16l18.07-.88,19.38-.14S261.77,382,262.3,348c.38-23.72,3.16-69.25,3.16-69.25s20.82-4.86,26.8-23.86C295.89,243.36,296.51,217.31,273,202.6ZM284.11,251c-5.41,12.53-17.36,15.2-29.16,15.56-11.79-.36-23.74-3-29.16-15.56a28.89,28.89,0,0,1-.15-21.61c2.43-6.46,5.81-12.62,11.84-16l.16-.09a36.07,36.07,0,0,1,34.62,0l.16.09c6,3.36,9.41,9.52,11.84,16A28.84,28.84,0,0,1,284.11,251Z" style="fill:#407BFF"></path><path d="M280.35,396.49c-.73-1.82-3-2.29-5-2.44a117.92,117.92,0,0,0-15.84-.21q-11.7-.25-23.41.33c-2.63.13-5.88.75-6.62,3.29-.59,2,.83,4,2.3,5.49a32.55,32.55,0,0,0,19,9.21c.33.42.65.84,1,1.24a5.22,5.22,0,0,0,4,2.16c1.78-.11,3.13-1.64,4-3.21.08-.15.16-.3.23-.46a32.41,32.41,0,0,0,18.63-10.45C279.89,400.06,281,398.19,280.35,396.49Z" style="fill:#263238"></path><path d="M166,232.21a9,9,0,0,1,3.69-4.27,5.39,5.39,0,0,1,5.46.07c2.14,1.45,2.58,4.36,2.82,6.93.8,8.62,1.62,17.32,4.31,25.55s7.41,16.07,14.6,20.9c-14.26-5.28-20.91-17-27-27.58a39.78,39.78,0,0,1-4.56-10.42A17.33,17.33,0,0,1,166,232.21Z" style="fill:#407BFF"></path><path d="M269.44,234.61a9.52,9.52,0,0,0-9.25-6c-3.92.33-7.42,3.9-7.3,7.84a8.72,8.72,0,0,1,5.36-3.21,5.71,5.71,0,0,1,5.56,2.37c1.36,2.16.71,5.18-1,7a10.57,10.57,0,0,1-6.9,2.89,12.8,12.8,0,0,1-7.68-1.62,11.62,11.62,0,0,1-5-11.73,15.14,15.14,0,0,1,7.92-10.4c4-2.13,9.13-1.55,13.16-2.09a25.09,25.09,0,0,0-10.73-1c-8.07.61-12,5.75-13.84,11a16.38,16.38,0,0,0,2.9,15.62,17.26,17.26,0,0,0,14.84,5.88,15,15,0,0,0,10.14-5.41A11.6,11.6,0,0,0,269.44,234.61Z" style="fill:#407BFF"></path><path d="M260,398.86a1.58,1.58,0,0,0-1.09-2.72c-6.6-.06-25.29-.27-26,.7-.82,1.18,4.05,5.5,10,5.5C253.77,402.35,258.22,400.53,260,398.86Z" style="fill:#f0f0f0;opacity:0.2"></path><path d="M160.9,306.73c.38,10.39,7.7,19.34,16.15,25.41s18.22,10,26.91,15.75,16.62,13.89,18.27,24.16a58.64,58.64,0,0,0-24.53-21.91c-8-3.78-16.87-5.78-24-10.92A33.16,33.16,0,0,1,160.23,310" style="fill:#407BFF"></path><path d="M230.79,288.25c-12-4.76-24.66-18.46-31.94-31.22s-7.82-30.47-1.12-43.54c1.6-3.13,3.93-6.18,7.29-7.27s7.74.69,8.32,4.16-2.38,6.2-4.6,8.83c-8.49,10-8.25,25.22-2.89,37.2s15.57,22.65,24.94,31.84" style="fill:#407BFF"></path><path d="M341.69,231.48a8.92,8.92,0,0,0-3.7-4.27,5.39,5.39,0,0,0-5.46.07c-2.14,1.45-2.57,4.36-2.81,6.93-.8,8.62-1.63,17.32-4.31,25.55s-7.42,16.07-14.6,20.9c14.25-5.28,20.9-17,27-27.58a39.9,39.9,0,0,0,4.55-10.42A17.4,17.4,0,0,0,341.69,231.48Z" style="fill:#407BFF"></path><path d="M346.82,306c-.39,10.39-7.71,19.34-16.16,25.41s-18.21,10-26.9,15.75-16.62,13.89-18.27,24.16A58.62,58.62,0,0,1,310,349.41c8-3.78,16.87-5.78,24-10.93a33.15,33.15,0,0,0,13.44-29.26" style="fill:#407BFF"></path><path d="M276.92,287.52c12-4.77,24.67-18.46,31.94-31.22s7.82-30.47,1.13-43.54c-1.61-3.14-3.94-6.18-7.29-7.27s-7.74.69-8.33,4.16,2.38,6.2,4.61,8.83c8.48,10,8.24,25.22,2.89,37.2s-15.58,22.65-24.95,31.84" style="fill:#407BFF"></path><path d="M162.05,272s25.88,10.95,36.08,17.67,31,23.66,35.33,35.58c4.9,13.46,8.46,37.82,7,41.8s-5.12-10.5-8.11-16.72-8-7.57-10.09-8.35c-9.11-3.44-34.29-5.21-49-24.37S162.05,272,162.05,272Z" style="fill:#407BFF"></path><path d="M162.05,272s25.88,10.95,36.08,17.67,31,23.66,35.33,35.58c4.9,13.46,8.46,37.82,7,41.8s-5.12-10.5-8.11-16.72-8-7.57-10.09-8.35c-9.11-3.44-34.29-5.21-49-24.37S162.05,272,162.05,272Z" style="fill:#fff;opacity:0.5"></path><path d="M173.91,288.25c1.58,10.43,8.32,31.35,26.34,37.62,15.38,5.35,24.45,9,29.68,11.34-.51-8.23-10.45-23.17-23.7-33S175,288.25,173.91,288.25Z" style="fill:#263238"></path><path d="M344.52,272s-25.88,10.95-36.08,17.67-31,23.66-35.34,35.58c-4.89,13.46-8.46,37.82-7,41.8s5.12-10.5,8.1-16.72,8-7.57,10.1-8.35c9.1-3.44,34.29-5.21,49-24.37S344.52,272,344.52,272Z" style="fill:#407BFF"></path><path d="M344.52,272s-25.88,10.95-36.08,17.67-31,23.66-35.34,35.58c-4.89,13.46-8.46,37.82-7,41.8s5.12-10.5,8.1-16.72,8-7.57,10.1-8.35c9.1-3.44,34.29-5.21,49-24.37S344.52,272,344.52,272Z" style="fill:#fff;opacity:0.5"></path><path d="M332.66,288.25c-1.58,10.43-8.32,31.35-26.34,37.62-15.39,5.35-24.45,9-29.69,11.34.52-8.23,10.46-23.17,23.71-33S331.55,288.25,332.66,288.25Z" style="fill:#263238"></path><path d="M178.34,132c-11.92-21.19-14.88-21.27-19.89-20.53-3.18.47-5.76,3-7.14,5.89S147.57,126,147,129.13c-5,25.74-7.12,58.47,8.07,76.81,16.53-12.07,33.77-21.65,52.09-28C207.12,178,189.39,151.61,178.34,132Z" style="fill:#407BFF"></path><path d="M155,205.94S175.4,188.21,191.17,177l-10.35-40.7L207.12,178C195.61,182,181.07,187.74,155,205.94Z" style="opacity:0.5"></path><path d="M322.92,132c11.93-21.18,14.89-21.26,19.9-20.52,3.18.46,5.76,3,7.14,5.89s3.74,8.63,4.35,11.78c5,25.74,7.12,58.47-8.07,76.81-16.54-12.06-33.77-21.65-52.09-28C294.15,177.93,311.88,151.58,322.92,132Z" style="fill:#407BFF"></path><path d="M346.24,205.91S325.87,188.19,310.1,177l10.35-40.71-26.3,41.66C305.66,182,320.19,187.71,346.24,205.91Z" style="opacity:0.5"></path></g><g id="freepik--Clouds--inject-181"><path d="M199.75,70.94c1.92,2.28,5.68,1.94,8.18.3s4.18-4.22,6.28-6.34,5-3.9,7.94-3.2a9.75,9.75,0,0,1,13.46-11,15.44,15.44,0,0,1,9.82-6.05c4.45-.68,12,1.41,14.27,5.3a12,12,0,0,1,17.65,12.14c4.48-.35,7.94,4.12,11.6,6.73s9.36,5.17,13.57,3.35c-1,3.61-5.62,5.63-9.34,6s-6.59-2-10-.53c-2.61,1.08-5.88,3.77-8.41,5A13,13,0,0,1,260.94,81c-1.86,3.2-7.92,4.55-11.47,3.5s-6.84-4.84-7.44-6.6c-2.38,3.43-7.8,5.65-12.68,5.33a20.48,20.48,0,0,1-13.42-7,12.62,12.62,0,0,1-18.45-4.75" style="fill:#407BFF"></path><g style="opacity:0.7000000000000001"><path d="M199.75,70.94c1.92,2.28,5.68,1.94,8.18.3s4.18-4.22,6.28-6.34,5-3.9,7.94-3.2a9.75,9.75,0,0,1,13.46-11,15.44,15.44,0,0,1,9.82-6.05c4.45-.68,12,1.41,14.27,5.3a12,12,0,0,1,17.65,12.14c4.48-.35,7.94,4.12,11.6,6.73s9.36,5.17,13.57,3.35c-1,3.61-5.62,5.63-9.34,6s-6.59-2-10-.53c-2.61,1.08-5.88,3.77-8.41,5A13,13,0,0,1,260.94,81c-1.86,3.2-7.92,4.55-11.47,3.5s-6.84-4.84-7.44-6.6c-2.38,3.43-7.8,5.65-12.68,5.33a20.48,20.48,0,0,1-13.42-7,12.62,12.62,0,0,1-18.45-4.75" style="fill:#fff"></path></g><path d="M250.33,67.37a9,9,0,0,1-4.45-1.14,7.31,7.31,0,0,1-3.7-6.35,5.94,5.94,0,0,1,4.66-5.56,5.32,5.32,0,0,1,5.43,2.54.5.5,0,0,1-.86.5A4.39,4.39,0,0,0,247,55.3a4.93,4.93,0,0,0-3.83,4.62,6.3,6.3,0,0,0,3.2,5.44,8.5,8.5,0,0,0,6.55.64,10.31,10.31,0,0,0,5.69-15.7.49.49,0,0,1,.13-.69.5.5,0,0,1,.7.13A11.32,11.32,0,0,1,253.21,67,10.66,10.66,0,0,1,250.33,67.37Z" style="fill:#407BFF"></path><path d="M261.61,81.7a.46.46,0,0,1-.23-.06c-2.13-1.07-2.75-3.57-2.62-5.54a10.88,10.88,0,0,1,6.54-9c2.58-1.11,4.82-1.06,6.67.14a4.8,4.8,0,0,1,1.81,5.83,5.24,5.24,0,0,1-5.6,2.84.51.51,0,0,1-.4-.59.5.5,0,0,1,.58-.4,4.25,4.25,0,0,0,4.51-2.26,3.78,3.78,0,0,0-1.44-4.58c-1.56-1-3.48-1-5.72-.07a9.86,9.86,0,0,0-5.95,8.14c-.1,1.58.38,3.73,2.07,4.59a.5.5,0,0,1-.22,1Z" style="fill:#407BFF"></path><path d="M269.79,67.55a.52.52,0,0,1-.21,0,.5.5,0,0,1-.24-.67c1.07-2.27,2.81-4.64,7.6-5.07a.5.5,0,1,1,.09,1c-4.27.39-5.79,2.4-6.79,4.51A.48.48,0,0,1,269.79,67.55Z" style="fill:#407BFF"></path><path d="M240,80.11a.51.51,0,0,1-.37-.17.49.49,0,0,1,0-.7c2.28-2.07,3-6.12,2.4-8.85a6.77,6.77,0,0,0-5.73-5,7.69,7.69,0,0,0-7.07,3.34,4.15,4.15,0,0,0-.77,3.55,3.42,3.42,0,0,0,2.91,2.13,6.52,6.52,0,0,0,3.89-1,.5.5,0,0,1,.49.87,7.49,7.49,0,0,1-4.49,1.08,4.45,4.45,0,0,1-3.75-2.8,5.12,5.12,0,0,1,.9-4.43,8.7,8.7,0,0,1,8-3.78,7.83,7.83,0,0,1,6.6,5.83c.66,3-.07,7.41-2.71,9.81A.55.55,0,0,1,240,80.11Z" style="fill:#407BFF"></path><path d="M460.65,308.46a20.33,20.33,0,0,0-14,2l-.25-.57c1.66-3.31-.35-9.15-3.22-11.49s-5.94-2.92-9.64-3.08A20.36,20.36,0,0,0,424,296.9a13.22,13.22,0,0,0-6.45,8.34,6.84,6.84,0,0,0-5.34,5.5,8.64,8.64,0,0,0,2.5,7.44,11.74,11.74,0,0,0,7.3,3.25c-.74,1.93.41,4.08,1.83,5.59a17.26,17.26,0,0,0,12.27,5.18,23.28,23.28,0,0,0,12.9-3.94c3.82-2.48,7-5.85,10.7-8.48s8.33-4.56,12.77-3.53A20.33,20.33,0,0,0,460.65,308.46Z" style="fill:#407BFF"></path><g style="opacity:0.7000000000000001"><path d="M460.65,308.46a20.33,20.33,0,0,0-14,2l-.25-.57c1.66-3.31-.35-9.15-3.22-11.49s-5.94-2.92-9.64-3.08A20.36,20.36,0,0,0,424,296.9a13.22,13.22,0,0,0-6.45,8.34,6.84,6.84,0,0,0-5.34,5.5,8.64,8.64,0,0,0,2.5,7.44,11.74,11.74,0,0,0,7.3,3.25c-.74,1.93.41,4.08,1.83,5.59a17.26,17.26,0,0,0,12.27,5.18,23.28,23.28,0,0,0,12.9-3.94c3.82-2.48,7-5.85,10.7-8.48s8.33-4.56,12.77-3.53A20.33,20.33,0,0,0,460.65,308.46Z" style="fill:#fff"></path></g><path d="M436.07,317.05a8.18,8.18,0,0,1-6.44-2.85,7,7,0,0,1,10.9-8.84.5.5,0,0,1-.07.7.49.49,0,0,1-.7-.06,6,6,0,0,0-9.35,7.58c1.74,2.19,5.12,3,8.21,2.09a14.36,14.36,0,0,0,7.12-5.69.51.51,0,0,1,.7-.11.49.49,0,0,1,.12.69,15.05,15.05,0,0,1-7.64,6.06A9.66,9.66,0,0,1,436.07,317.05Z" style="fill:#407BFF"></path><path d="M52.84,317.14a19.85,19.85,0,0,1,13.79,1.93l.25-.56c-1.62-3.26.34-9,3.16-11.29s5.84-2.87,9.48-3a20.07,20.07,0,0,1,9.32,1.59A13,13,0,0,1,95.18,314a6.75,6.75,0,0,1,5.24,5.41A8.49,8.49,0,0,1,98,326.69a11.56,11.56,0,0,1-7.18,3.19c.73,1.9-.4,4-1.79,5.5a17,17,0,0,1-12.06,5.08,22.9,22.9,0,0,1-12.67-3.87c-3.75-2.44-6.86-5.75-10.51-8.33s-8.19-4.48-12.55-3.47A20,20,0,0,1,52.84,317.14Z" style="fill:#407BFF"></path><g style="opacity:0.7000000000000001"><path d="M52.84,317.14a19.85,19.85,0,0,1,13.79,1.93l.25-.56c-1.62-3.26.34-9,3.16-11.29s5.84-2.87,9.48-3a20.07,20.07,0,0,1,9.32,1.59A13,13,0,0,1,95.18,314a6.75,6.75,0,0,1,5.24,5.41A8.49,8.49,0,0,1,98,326.69a11.56,11.56,0,0,1-7.18,3.19c.73,1.9-.4,4-1.79,5.5a17,17,0,0,1-12.06,5.08,22.9,22.9,0,0,1-12.67-3.87c-3.75-2.44-6.86-5.75-10.51-8.33s-8.19-4.48-12.55-3.47A20,20,0,0,1,52.84,317.14Z" style="fill:#fff"></path></g><path d="M77,325.59a9.65,9.65,0,0,1-2.8-.42,15,15,0,0,1-7.51-6,.5.5,0,0,1,.12-.7.51.51,0,0,1,.7.12,14,14,0,0,0,7,5.58c3,.94,6.35.1,8.05-2a5.9,5.9,0,0,0-9.16-7.44.5.5,0,1,1-.77-.63,6.9,6.9,0,0,1,10.72,8.69A8.07,8.07,0,0,1,77,325.59Z" style="fill:#407BFF"></path></g><g id="freepik--Plants--inject-181"><path d="M418.31,221.32c-3.14-6.48-9.81-11.81-18.6-7.55a23.26,23.26,0,0,0-5,3.36,19.9,19.9,0,0,0-.21-2.47c-1.5-9.64-9.68-12.1-16.8-11s-14.16,5.93-12.66,15.58a22,22,0,0,0,.85,3.43l-.09,0c-9.5-2.22-14.84,4.45-16.48,11.46s.2,15.36,9.7,17.58a23.1,23.1,0,0,0,6,.52,19.09,19.09,0,0,0-1.39,2.06c-4.91,8.44-.09,15.49,6.14,19.11s14.74,4.3,19.64-4.14a23.05,23.05,0,0,0,2.26-5.58,19.82,19.82,0,0,0,1.55,1.93c6.64,7.16,14.79,4.62,20.08-.28s8.42-12.84,1.78-20a23.72,23.72,0,0,0-4.67-3.79,21.2,21.2,0,0,0,2.3-.92C421.5,236.34,421.46,227.8,418.31,221.32Z" style="fill:#407BFF"></path><path d="M418.31,221.32c-3.14-6.48-9.81-11.81-18.6-7.55a23.26,23.26,0,0,0-5,3.36,19.9,19.9,0,0,0-.21-2.47c-1.5-9.64-9.68-12.1-16.8-11s-14.16,5.93-12.66,15.58a22,22,0,0,0,.85,3.43l-.09,0c-9.5-2.22-14.84,4.45-16.48,11.46s.2,15.36,9.7,17.58a23.1,23.1,0,0,0,6,.52,19.09,19.09,0,0,0-1.39,2.06c-4.91,8.44-.09,15.49,6.14,19.11s14.74,4.3,19.64-4.14a23.05,23.05,0,0,0,2.26-5.58,19.82,19.82,0,0,0,1.55,1.93c6.64,7.16,14.79,4.62,20.08-.28s8.42-12.84,1.78-20a23.72,23.72,0,0,0-4.67-3.79,21.2,21.2,0,0,0,2.3-.92C421.5,236.34,421.46,227.8,418.31,221.32Z" style="fill:#fff;opacity:0.5"></path><path d="M393.16,237.53a6.81,6.81,0,1,1-7.78-5.68A6.81,6.81,0,0,1,393.16,237.53Z" style="fill:#263238"></path><path d="M387.09,225.94a2.6,2.6,0,1,1-3-2.17A2.6,2.6,0,0,1,387.09,225.94Z" style="fill:#263238"></path><circle cx="388.33" cy="250.82" r="2.6" transform="translate(-43.86 414.91) rotate(-53.65)" style="fill:#263238"></circle><polygon points="388.16 250.85 384.35 226.37 384.7 226.32 388.51 250.79 388.16 250.85" style="fill:#263238"></polygon><path d="M399.07,239.25a2.6,2.6,0,1,1,2.17-3A2.6,2.6,0,0,1,399.07,239.25Z" style="fill:#263238"></path><path d="M374.59,243.06a2.6,2.6,0,1,1,2.17-3A2.6,2.6,0,0,1,374.59,243.06Z" style="fill:#263238"></path><polygon points="374.22 240.66 374.16 240.31 398.64 236.5 398.69 236.85 374.22 240.66" style="fill:#263238"></polygon><path d="M395.83,230.12a2.6,2.6,0,1,1-.56-3.64A2.59,2.59,0,0,1,395.83,230.12Z" style="fill:#263238"></path><path d="M381.22,250.12a2.6,2.6,0,1,1-.56-3.64A2.59,2.59,0,0,1,381.22,250.12Z" style="fill:#263238"></path><rect x="374.04" y="238.41" width="24.77" height="0.35" transform="translate(-34.23 409.74) rotate(-53.83)" style="fill:#263238"></rect><path d="M394.9,248a2.6,2.6,0,1,1,3.63-.57A2.61,2.61,0,0,1,394.9,248Z" style="fill:#263238"></path><path d="M374.89,233.38a2.6,2.6,0,1,1,3.64-.57A2.6,2.6,0,0,1,374.89,233.38Z" style="fill:#263238"></path><polygon points="396.33 246.03 376.32 231.42 376.53 231.13 396.53 245.75 396.33 246.03" style="fill:#263238"></polygon><path d="M267.05,123.21c-1.58-3.27-4.95-6-9.38-3.81a11.28,11.28,0,0,0-2.52,1.7,8.42,8.42,0,0,0-.11-1.25c-.75-4.87-4.88-6.1-8.47-5.54s-7.15,3-6.39,7.86a11.21,11.21,0,0,0,.43,1.73l-.05,0c-4.79-1.12-7.49,2.25-8.32,5.79s.1,7.74,4.9,8.86a11.53,11.53,0,0,0,3,.27c-.25.34-.49.68-.7,1-2.47,4.26,0,7.82,3.1,9.65s7.44,2.17,9.91-2.09a11.49,11.49,0,0,0,1.14-2.81,10.76,10.76,0,0,0,.79,1c3.35,3.61,7.46,2.33,10.13-.14s4.25-6.48.9-10.09a11.67,11.67,0,0,0-2.36-1.91,10.81,10.81,0,0,0,1.16-.47C268.66,130.79,268.64,126.48,267.05,123.21Z" style="fill:#407BFF"></path><path d="M267.05,123.21c-1.58-3.27-4.95-6-9.38-3.81a11.28,11.28,0,0,0-2.52,1.7,8.42,8.42,0,0,0-.11-1.25c-.75-4.87-4.88-6.1-8.47-5.54s-7.15,3-6.39,7.86a11.21,11.21,0,0,0,.43,1.73l-.05,0c-4.79-1.12-7.49,2.25-8.32,5.79s.1,7.74,4.9,8.86a11.53,11.53,0,0,0,3,.27c-.25.34-.49.68-.7,1-2.47,4.26,0,7.82,3.1,9.65s7.44,2.17,9.91-2.09a11.49,11.49,0,0,0,1.14-2.81,10.76,10.76,0,0,0,.79,1c3.35,3.61,7.46,2.33,10.13-.14s4.25-6.48.9-10.09a11.67,11.67,0,0,0-2.36-1.91,10.81,10.81,0,0,0,1.16-.47C268.66,130.79,268.64,126.48,267.05,123.21Z" style="fill:#fff;opacity:0.5"></path><path d="M254.36,131.39a3.44,3.44,0,1,1-3.92-2.86A3.44,3.44,0,0,1,254.36,131.39Z" style="fill:#263238"></path><path d="M251.3,125.54a1.31,1.31,0,0,1-2.59.41,1.3,1.3,0,0,1,1.09-1.5A1.31,1.31,0,0,1,251.3,125.54Z" style="fill:#263238"></path><path d="M253.22,137.89a1.31,1.31,0,1,1-1.5-1.09A1.31,1.31,0,0,1,253.22,137.89Z" style="fill:#263238"></path><polygon points="251.75 138.12 249.83 125.77 250.18 125.72 252.1 138.07 251.75 138.12" style="fill:#263238"></polygon><path d="M257.34,132.26a1.32,1.32,0,1,1,1.1-1.5A1.31,1.31,0,0,1,257.34,132.26Z" style="fill:#263238"></path><path d="M245,134.18a1.31,1.31,0,1,1,1.1-1.5A1.31,1.31,0,0,1,245,134.18Z" style="fill:#263238"></path><polygon points="244.82 133.06 244.76 132.71 257.11 130.79 257.17 131.13 244.82 133.06" style="fill:#263238"></polygon><path d="M255.71,127.65a1.31,1.31,0,1,1-.29-1.83A1.31,1.31,0,0,1,255.71,127.65Z" style="fill:#263238"></path><path d="M248.34,137.74a1.31,1.31,0,1,1-.29-1.83A1.31,1.31,0,0,1,248.34,137.74Z" style="fill:#263238"></path><rect x="244.71" y="131.75" width="12.5" height="0.35" transform="translate(-3.44 257.08) rotate(-53.93)" style="fill:#263238"></rect><path d="M255.24,136.67a1.31,1.31,0,1,1,1.83-.29A1.31,1.31,0,0,1,255.24,136.67Z" style="fill:#263238"></path><path d="M245.14,129.29A1.31,1.31,0,1,1,247,129,1.32,1.32,0,0,1,245.14,129.29Z" style="fill:#263238"></path><polygon points="255.91 135.75 245.81 128.38 246.02 128.09 256.11 135.47 255.91 135.75" style="fill:#263238"></polygon><path d="M147.37,216.2c-2.9-6-9.05-10.88-17.14-7a21.74,21.74,0,0,0-4.6,3.1,18.61,18.61,0,0,0-.19-2.27c-1.39-8.89-8.92-11.15-15.48-10.13s-13,5.47-11.67,14.36a20.45,20.45,0,0,0,.79,3.15l-.08,0c-8.76-2.05-13.68,4.09-15.19,10.56s.18,14.15,8.94,16.19a21.23,21.23,0,0,0,5.52.49A19.6,19.6,0,0,0,97,246.56c-4.52,7.77-.08,14.27,5.66,17.61s13.58,4,18.1-3.82a21.36,21.36,0,0,0,2.08-5.14,18,18,0,0,0,1.43,1.78c6.11,6.59,13.63,4.25,18.49-.26s7.76-11.83,1.65-18.42a21,21,0,0,0-4.31-3.49,19.93,19.93,0,0,0,2.12-.85C150.3,230,150.26,222.18,147.37,216.2Z" style="fill:#407BFF"></path><path d="M147.37,216.2c-2.9-6-9.05-10.88-17.14-7a21.74,21.74,0,0,0-4.6,3.1,18.61,18.61,0,0,0-.19-2.27c-1.39-8.89-8.92-11.15-15.48-10.13s-13,5.47-11.67,14.36a20.45,20.45,0,0,0,.79,3.15l-.08,0c-8.76-2.05-13.68,4.09-15.19,10.56s.18,14.15,8.94,16.19a21.23,21.23,0,0,0,5.52.49A19.6,19.6,0,0,0,97,246.56c-4.52,7.77-.08,14.27,5.66,17.61s13.58,4,18.1-3.82a21.36,21.36,0,0,0,2.08-5.14,18,18,0,0,0,1.43,1.78c6.11,6.59,13.63,4.25,18.49-.26s7.76-11.83,1.65-18.42a21,21,0,0,0-4.31-3.49,19.93,19.93,0,0,0,2.12-.85C150.3,230,150.26,222.18,147.37,216.2Z" style="fill:#fff;opacity:0.5"></path><path d="M124.19,231.14a6.27,6.27,0,1,1-7.17-5.23A6.27,6.27,0,0,1,124.19,231.14Z" style="fill:#263238"></path><path d="M118.6,220.46a2.39,2.39,0,1,1-2.73-2A2.39,2.39,0,0,1,118.6,220.46Z" style="fill:#263238"></path><path d="M122.11,243a2.39,2.39,0,1,1-2.73-2A2.39,2.39,0,0,1,122.11,243Z" style="fill:#263238"></path><rect x="117.81" y="220.7" width="0.35" height="22.82" transform="translate(-34.31 20.92) rotate(-8.85)" style="fill:#263238"></rect><path d="M129.63,232.72a2.4,2.4,0,1,1,2-2.74A2.39,2.39,0,0,1,129.63,232.72Z" style="fill:#263238"></path><path d="M107.08,236.23a2.39,2.39,0,1,1,2-2.74A2.39,2.39,0,0,1,107.08,236.23Z" style="fill:#263238"></path><polygon points="106.74 234.04 106.69 233.69 129.24 230.18 129.29 230.53 106.74 234.04" style="fill:#263238"></polygon><path d="M126.66,224.31a2.4,2.4,0,1,1-.53-3.35A2.4,2.4,0,0,1,126.66,224.31Z" style="fill:#263238"></path><path d="M113.19,242.74a2.4,2.4,0,1,1-.52-3.35A2.4,2.4,0,0,1,113.19,242.74Z" style="fill:#263238"></path><polygon points="111.4 241.43 111.12 241.22 124.58 222.79 124.86 223 111.4 241.43" style="fill:#263238"></polygon><path d="M125.79,240.77a2.4,2.4,0,1,1,3.35-.52A2.4,2.4,0,0,1,125.79,240.77Z" style="fill:#263238"></path><path d="M107.36,227.31a2.4,2.4,0,1,1,3.35-.52A2.4,2.4,0,0,1,107.36,227.31Z" style="fill:#263238"></path><polygon points="127.1 238.98 108.67 225.52 108.88 225.23 127.31 238.7 127.1 238.98" style="fill:#263238"></polygon></g></svg>
